<svg xmlns="http://www.w3.org/2000/svg" viewBox="0 0 320 320" width="320" height="320" role="img" aria-label="Avatar">
  <defs>
    <linearGradient id="bg" x1="0" y1="0" x2="1" y2="1">
      <stop offset="0" stop-color="#f2f5ff"/>
      <stop offset="1" stop-color="#e6f4f1"/>
    </linearGradient>
    <linearGradient id="shirt" x1="0" y1="0" x2="0" y2="1">
      <stop offset="0" stop-color="#4c6be8"/>
      <stop offset="1" stop-color="#3b5bdb"/>
    </linearGradient>
  </defs>
  <rect width="320" height="320" fill="url(#bg)"/>
  <!-- 装饰光斑 -->
  <circle cx="268" cy="52" r="46" fill="#d97706" opacity="0.12"/>
  <circle cx="46" cy="262" r="58" fill="#0d9488" opacity="0.12"/>
  <circle cx="288" cy="270" r="14" fill="#d97706" opacity="0.5"/>
  <circle cx="36" cy="86" r="8" fill="#3b5bdb" opacity="0.45"/>
  <!-- 人物 -->
  <g>
    <!-- 身体 / 肩 -->
    <path d="M62 320c0-72 44-108 98-108s98 36 98 108Z" fill="url(#shirt)"/>
    <!-- 衣领 -->
    <path d="M132 226l28 30 28-30-14-10-14 14-14-14Z" fill="#ffffff" opacity="0.92"/>
    <!-- 颈部 -->
    <path d="M140 196h40v26c0 12-9 20-20 20s-20-8-20-20Z" fill="#e8b088"/>
    <!-- 头部 -->
    <circle cx="160" cy="142" r="54" fill="#f4c39a"/>
    <!-- 头发 -->
    <path d="M106 138c0-34 24-58 54-58s54 24 54 58c0-6-8-16-14-16-6-14-24-20-40-20s-34 6-40 20c-6 0-14 10-14 16Z" fill="#2b2f38"/>
    <path d="M112 132c4-28 24-42 48-42 10 0 20 2 28 7-10-6-22-9-34-9-28 0-46 22-42 44Z" fill="#2b2f38"/>
    <!-- 眼镜 -->
    <g fill="none" stroke="#2b2f38" stroke-width="3.4" stroke-linecap="round">
      <circle cx="139" cy="146" r="12"/>
      <circle cx="181" cy="146" r="12"/>
      <path d="M151 146h18"/>
      <path d="M127 144l-9-3M193 144l9-3"/>
    </g>
    <!-- 眼睛 -->
    <circle cx="139" cy="146" r="3.2" fill="#2b2f38"/>
    <circle cx="181" cy="146" r="3.2" fill="#2b2f38"/>
    <!-- 微笑 -->
    <path d="M148 168c7 7 17 7 24 0" fill="none" stroke="#b97b52" stroke-width="3.4" stroke-linecap="round"/>
    <!-- 腮红 -->
    <circle cx="126" cy="162" r="7" fill="#f0a18d" opacity="0.5"/>
    <circle cx="194" cy="162" r="7" fill="#f0a18d" opacity="0.5"/>
  </g>
</svg>
